solid OpenSCAD_Model
  facet normal 1 0 0
    outer loop
      vertex 66.75 92.2 2.2
      vertex 66.75 74.4 1.2
      vertex 66.75 92.2 1.2
    endloop
  endfacet
  facet normal 1 0 0
    outer loop
      vertex 66.75 74.4 1.2
      vertex 66.75 73.6 1.2
      vertex 66.75 74.4 0
    endloop
  endfacet
  facet normal 1 0 0
    outer loop
      vertex 66.75 92.2 2.2
      vertex 66.75 73.6 1.2
      vertex 66.75 74.4 1.2
    endloop
  endfacet
  facet normal 1 0 0
    outer loop
      vertex 66.75 92.2 2.2
      vertex 66.75 55.8 1.2
      vertex 66.75 73.6 1.2
    endloop
  endfacet
  facet normal 1 0 0
    outer loop
      vertex 66.75 55.8 1.2
      vertex 66.75 55 1.2
      vertex 66.75 55.8 0
    endloop
  endfacet
  facet normal 1 0 0
    outer loop
      vertex 66.75 92.2 2.2
      vertex 66.75 55 1.2
      vertex 66.75 55.8 1.2
    endloop
  endfacet
  facet normal 1 0 0
    outer loop
      vertex 66.75 92.2 2.2
      vertex 66.75 37.2 1.2
      vertex 66.75 55 1.2
    endloop
  endfacet
  facet normal 1 0 0
    outer loop
      vertex 66.75 37.2 1.2
      vertex 66.75 36.4 1.2
      vertex 66.75 37.2 0
    endloop
  endfacet
  facet normal 1 0 0
    outer loop
      vertex 66.75 92.2 2.2
      vertex 66.75 36.4 1.2
      vertex 66.75 37.2 1.2
    endloop
  endfacet
  facet normal 1 -0 0
    outer loop
      vertex 66.75 0 2.2
      vertex 66.75 36.4 1.2
      vertex 66.75 92.2 2.2
    endloop
  endfacet
  facet normal 1 0 0
    outer loop
      vertex 66.75 18.6 1.2
      vertex 66.75 17.8 1.2
      vertex 66.75 18.6 0
    endloop
  endfacet
  facet normal 1 0 0
    outer loop
      vertex 66.75 36.4 1.2
      vertex 66.75 0 2.2
      vertex 66.75 18.6 1.2
    endloop
  endfacet
  facet normal 1 0 0
    outer loop
      vertex 66.75 18.6 1.2
      vertex 66.75 0 2.2
      vertex 66.75 17.8 1.2
    endloop
  endfacet
  facet normal 1 0 0
    outer loop
      vertex 66.75 17.8 1.2
      vertex 66.75 0 2.2
      vertex 66.75 0 1.2
    endloop
  endfacet
  facet normal 1 0 0
    outer loop
      vertex 66.75 74.4 0
      vertex 66.75 73.6 1.2
      vertex 66.75 73.6 0
    endloop
  endfacet
  facet normal 1 0 0
    outer loop
      vertex 66.75 55.8 0
      vertex 66.75 55 1.2
      vertex 66.75 55 0
    endloop
  endfacet
  facet normal 1 0 0
    outer loop
      vertex 66.75 37.2 0
      vertex 66.75 36.4 1.2
      vertex 66.75 36.4 0
    endloop
  endfacet
  facet normal 1 0 0
    outer loop
      vertex 66.75 18.6 0
      vertex 66.75 17.8 1.2
      vertex 66.75 17.8 0
    endloop
  endfacet
  facet normal -0 0 1
    outer loop
      vertex -36.2 92.2 2.2
      vertex 66.75 0 2.2
      vertex 66.75 92.2 2.2
    endloop
  endfacet
  facet normal 0 0 1
    outer loop
      vertex 66.75 0 2.2
      vertex -36.2 92.2 2.2
      vertex -36.2 0 2.2
    endloop
  endfacet
  facet normal 0 0 -1
    outer loop
      vertex 19 0 0
      vertex 18.2 0 0
      vertex 19 17.8 0
    endloop
  endfacet
  facet normal 0 0 -1
    outer loop
      vertex 38 0 0
      vertex 37.2 0 0
      vertex 38 17.8 0
    endloop
  endfacet
  facet normal 0 0 -1
    outer loop
      vertex 57 0 0
      vertex 56.2 0 0
      vertex 57 17.8 0
    endloop
  endfacet
  facet normal 0 0 -1
    outer loop
      vertex 66.75 17.8 0
      vertex 61.76 18.6 0
      vertex 66.75 18.6 0
    endloop
  endfacet
  facet normal 0 0 -1
    outer loop
      vertex 61.76 18.6 0
      vertex 60.96 18.6 0
      vertex 61.76 36.4 0
    endloop
  endfacet
  facet normal 0 0 -1
    outer loop
      vertex 57 17.8 0
      vertex 61.76 18.6 0
      vertex 66.75 17.8 0
    endloop
  endfacet
  facet normal -0 0 -1
    outer loop
      vertex 61.76 18.6 0
      vertex 57 17.8 0
      vertex 60.96 18.6 0
    endloop
  endfacet
  facet normal 0 0 -1
    outer loop
      vertex 56.2 17.8 0
      vertex 57 17.8 0
      vertex 56.2 0 0
    endloop
  endfacet
  facet normal 0 0 -1
    outer loop
      vertex 56.2 17.8 0
      vertex 60.96 18.6 0
      vertex 57 17.8 0
    endloop
  endfacet
  facet normal 0 0 -1
    outer loop
      vertex 56.2 17.8 0
      vertex 42.76 18.6 0
      vertex 60.96 18.6 0
    endloop
  endfacet
  facet normal 0 0 -1
    outer loop
      vertex 42.76 18.6 0
      vertex 41.96 18.6 0
      vertex 42.76 36.4 0
    endloop
  endfacet
  facet normal 0 0 -1
    outer loop
      vertex 38 17.8 0
      vertex 42.76 18.6 0
      vertex 56.2 17.8 0
    endloop
  endfacet
  facet normal -0 0 -1
    outer loop
      vertex 42.76 18.6 0
      vertex 38 17.8 0
      vertex 41.96 18.6 0
    endloop
  endfacet
  facet normal 0 0 -1
    outer loop
      vertex 37.2 17.8 0
      vertex 38 17.8 0
      vertex 37.2 0 0
    endloop
  endfacet
  facet normal 0 0 -1
    outer loop
      vertex 37.2 17.8 0
      vertex 41.96 18.6 0
      vertex 38 17.8 0
    endloop
  endfacet
  facet normal 0 0 -1
    outer loop
      vertex 37.2 17.8 0
      vertex 23.76 18.6 0
      vertex 41.96 18.6 0
    endloop
  endfacet
  facet normal 0 0 -1
    outer loop
      vertex 23.76 18.6 0
      vertex 22.96 18.6 0
      vertex 23.76 36.4 0
    endloop
  endfacet
  facet normal 0 0 -1
    outer loop
      vertex 19 17.8 0
      vertex 23.76 18.6 0
      vertex 37.2 17.8 0
    endloop
  endfacet
  facet normal -0 0 -1
    outer loop
      vertex 23.76 18.6 0
      vertex 19 17.8 0
      vertex 22.96 18.6 0
    endloop
  endfacet
  facet normal 0 0 -1
    outer loop
      vertex 18.2 17.8 0
      vertex 19 17.8 0
      vertex 18.2 0 0
    endloop
  endfacet
  facet normal 0 0 -1
    outer loop
      vertex 18.2 17.8 0
      vertex 22.96 18.6 0
      vertex 19 17.8 0
    endloop
  endfacet
  facet normal 0 0 -1
    outer loop
      vertex 0 18.6 0
      vertex 18.2 17.8 0
      vertex 0 17.8 0
    endloop
  endfacet
  facet normal 0 0 -1
    outer loop
      vertex 18.2 17.8 0
      vertex 0 18.6 0
      vertex 22.96 18.6 0
    endloop
  endfacet
  facet normal 0 0 -1
    outer loop
      vertex 61.76 36.4 0
      vertex 66.75 37.2 0
      vertex 66.75 36.4 0
    endloop
  endfacet
  facet normal 0 0 -1
    outer loop
      vertex 60.96 36.4 0
      vertex 61.76 36.4 0
      vertex 60.96 18.6 0
    endloop
  endfacet
  facet normal 0 0 -1
    outer loop
      vertex 60.96 36.4 0
      vertex 66.75 37.2 0
      vertex 61.76 36.4 0
    endloop
  endfacet
  facet normal 0 0 -1
    outer loop
      vertex 60.96 36.4 0
      vertex 52.2 37.2 0
      vertex 66.75 37.2 0
    endloop
  endfacet
  facet normal 0 0 -1
    outer loop
      vertex 52.2 37.2 0
      vertex 51.4 37.2 0
      vertex 52.2 55 0
    endloop
  endfacet
  facet normal 0 0 -1
    outer loop
      vertex 60.96 36.4 0
      vertex 51.4 37.2 0
      vertex 52.2 37.2 0
    endloop
  endfacet
  facet normal 0 0 -1
    outer loop
      vertex 42.76 36.4 0
      vertex 51.4 37.2 0
      vertex 60.96 36.4 0
    endloop
  endfacet
  facet normal 0 0 -1
    outer loop
      vertex 41.96 36.4 0
      vertex 42.76 36.4 0
      vertex 41.96 18.6 0
    endloop
  endfacet
  facet normal 0 0 -1
    outer loop
      vertex 41.96 36.4 0
      vertex 51.4 37.2 0
      vertex 42.76 36.4 0
    endloop
  endfacet
  facet normal 0 0 -1
    outer loop
      vertex 41.96 36.4 0
      vertex 33.2 37.2 0
      vertex 51.4 37.2 0
    endloop
  endfacet
  facet normal 0 0 -1
    outer loop
      vertex 33.2 37.2 0
      vertex 32.4 37.2 0
      vertex 33.2 55 0
    endloop
  endfacet
  facet normal 0 0 -1
    outer loop
      vertex 41.96 36.4 0
      vertex 32.4 37.2 0
      vertex 33.2 37.2 0
    endloop
  endfacet
  facet normal 0 0 -1
    outer loop
      vertex 23.76 36.4 0
      vertex 32.4 37.2 0
      vertex 41.96 36.4 0
    endloop
  endfacet
  facet normal 0 0 -1
    outer loop
      vertex 22.96 36.4 0
      vertex 23.76 36.4 0
      vertex 22.96 18.6 0
    endloop
  endfacet
  facet normal 0 0 -1
    outer loop
      vertex 22.96 36.4 0
      vertex 32.4 37.2 0
      vertex 23.76 36.4 0
    endloop
  endfacet
  facet normal 0 0 -1
    outer loop
      vertex 0 37.2 0
      vertex 22.96 36.4 0
      vertex 0 36.4 0
    endloop
  endfacet
  facet normal 0 0 -1
    outer loop
      vertex 22.96 36.4 0
      vertex 0 37.2 0
      vertex 32.4 37.2 0
    endloop
  endfacet
  facet normal 0 0 -1
    outer loop
      vertex 66.75 55 0
      vertex 66.5 55.8 0
      vertex 66.75 55.8 0
    endloop
  endfacet
  facet normal 0 0 -1
    outer loop
      vertex 66.5 55.8 0
      vertex 65.7 55.8 0
      vertex 66.5 73.6 0
    endloop
  endfacet
  facet normal 0 0 -1
    outer loop
      vertex 66.75 55 0
      vertex 65.7 55.8 0
      vertex 66.5 55.8 0
    endloop
  endfacet
  facet normal 0 0 -1
    outer loop
      vertex 52.2 55 0
      vertex 65.7 55.8 0
      vertex 66.75 55 0
    endloop
  endfacet
  facet normal 0 0 -1
    outer loop
      vertex 51.4 55 0
      vertex 52.2 55 0
      vertex 51.4 37.2 0
    endloop
  endfacet
  facet normal 0 0 -1
    outer loop
      vertex 47.5 55.8 0
      vertex 52.2 55 0
      vertex 51.4 55 0
    endloop
  endfacet
  facet normal 0 0 -1
    outer loop
      vertex 52.2 55 0
      vertex 47.5 55.8 0
      vertex 65.7 55.8 0
    endloop
  endfacet
  facet normal 0 0 -1
    outer loop
      vertex 47.5 55.8 0
      vertex 46.7 55.8 0
      vertex 47.5 73.6 0
    endloop
  endfacet
  facet normal 0 0 -1
    outer loop
      vertex 51.4 55 0
      vertex 46.7 55.8 0
      vertex 47.5 55.8 0
    endloop
  endfacet
  facet normal 0 0 -1
    outer loop
      vertex 33.2 55 0
      vertex 46.7 55.8 0
      vertex 51.4 55 0
    endloop
  endfacet
  facet normal 0 0 -1
    outer loop
      vertex 32.4 55 0
      vertex 33.2 55 0
      vertex 32.4 37.2 0
    endloop
  endfacet
  facet normal 0 0 -1
    outer loop
      vertex 28.5 55.8 0
      vertex 33.2 55 0
      vertex 32.4 55 0
    endloop
  endfacet
  facet normal 0 0 -1
    outer loop
      vertex 33.2 55 0
      vertex 28.5 55.8 0
      vertex 46.7 55.8 0
    endloop
  endfacet
  facet normal 0 0 -1
    outer loop
      vertex 28.5 55.8 0
      vertex 27.7 55.8 0
      vertex 28.5 73.6 0
    endloop
  endfacet
  facet normal 0 0 -1
    outer loop
      vertex 32.4 55 0
      vertex 27.7 55.8 0
      vertex 28.5 55.8 0
    endloop
  endfacet
  facet normal 0 0 -1
    outer loop
      vertex 0 55 0
      vertex 27.7 55.8 0
      vertex 32.4 55 0
    endloop
  endfacet
  facet normal -0 0 -1
    outer loop
      vertex 27.7 55.8 0
      vertex 0 55 0
      vertex 0 55.8 0
    endloop
  endfacet
  facet normal 0 0 -1
    outer loop
      vertex 66.5 73.6 0
      vertex 66.75 74.4 0
      vertex 66.75 73.6 0
    endloop
  endfacet
  facet normal 0 0 -1
    outer loop
      vertex 65.7 73.6 0
      vertex 66.5 73.6 0
      vertex 65.7 55.8 0
    endloop
  endfacet
  facet normal 0 0 -1
    outer loop
      vertex 65.7 73.6 0
      vertex 66.75 74.4 0
      vertex 66.5 73.6 0
    endloop
  endfacet
  facet normal 0 0 -1
    outer loop
      vertex 65.7 73.6 0
      vertex 57 74.4 0
      vertex 66.75 74.4 0
    endloop
  endfacet
  facet normal 0 0 -1
    outer loop
      vertex 57 74.4 0
      vertex 56.2 74.4 0
      vertex 57 92.2 0
    endloop
  endfacet
  facet normal 0 0 -1
    outer loop
      vertex 65.7 73.6 0
      vertex 56.2 74.4 0
      vertex 57 74.4 0
    endloop
  endfacet
  facet normal 0 0 -1
    outer loop
      vertex 47.5 73.6 0
      vertex 56.2 74.4 0
      vertex 65.7 73.6 0
    endloop
  endfacet
  facet normal 0 0 -1
    outer loop
      vertex 46.7 73.6 0
      vertex 47.5 73.6 0
      vertex 46.7 55.8 0
    endloop
  endfacet
  facet normal 0 0 -1
    outer loop
      vertex 46.7 73.6 0
      vertex 56.2 74.4 0
      vertex 47.5 73.6 0
    endloop
  endfacet
  facet normal 0 0 -1
    outer loop
      vertex 46.7 73.6 0
      vertex 38 74.4 0
      vertex 56.2 74.4 0
    endloop
  endfacet
  facet normal 0 0 -1
    outer loop
      vertex 38 74.4 0
      vertex 37.2 74.4 0
      vertex 38 92.2 0
    endloop
  endfacet
  facet normal 0 0 -1
    outer loop
      vertex 46.7 73.6 0
      vertex 37.2 74.4 0
      vertex 38 74.4 0
    endloop
  endfacet
  facet normal 0 0 -1
    outer loop
      vertex 28.5 73.6 0
      vertex 37.2 74.4 0
      vertex 46.7 73.6 0
    endloop
  endfacet
  facet normal 0 0 -1
    outer loop
      vertex 27.7 73.6 0
      vertex 28.5 73.6 0
      vertex 27.7 55.8 0
    endloop
  endfacet
  facet normal 0 0 -1
    outer loop
      vertex 27.7 73.6 0
      vertex 37.2 74.4 0
      vertex 28.5 73.6 0
    endloop
  endfacet
  facet normal 0 0 -1
    outer loop
      vertex 27.7 73.6 0
      vertex 19 74.4 0
      vertex 37.2 74.4 0
    endloop
  endfacet
  facet normal 0 0 -1
    outer loop
      vertex 19 74.4 0
      vertex 18.2 74.4 0
      vertex 19 92.2 0
    endloop
  endfacet
  facet normal 0 0 -1
    outer loop
      vertex 27.7 73.6 0
      vertex 18.2 74.4 0
      vertex 19 74.4 0
    endloop
  endfacet
  facet normal 0 0 -1
    outer loop
      vertex 0 73.6 0
      vertex 18.2 74.4 0
      vertex 27.7 73.6 0
    endloop
  endfacet
  facet normal -0 0 -1
    outer loop
      vertex 18.2 74.4 0
      vertex 0 73.6 0
      vertex 0 74.4 0
    endloop
  endfacet
  facet normal -0 0 -1
    outer loop
      vertex 57 92.2 0
      vertex 56.2 74.4 0
      vertex 56.2 92.2 0
    endloop
  endfacet
  facet normal -0 0 -1
    outer loop
      vertex 38 92.2 0
      vertex 37.2 74.4 0
      vertex 37.2 92.2 0
    endloop
  endfacet
  facet normal -0 0 -1
    outer loop
      vertex 19 92.2 0
      vertex 18.2 74.4 0
      vertex 18.2 92.2 0
    endloop
  endfacet
  facet normal -1 0 0
    outer loop
      vertex -36.2 0 1.2
      vertex -36.2 92.2 2.2
      vertex -36.2 92.2 1.2
    endloop
  endfacet
  facet normal -1 -0 0
    outer loop
      vertex -36.2 92.2 2.2
      vertex -36.2 0 1.2
      vertex -36.2 0 2.2
    endloop
  endfacet
  facet normal 0 1 -0
    outer loop
      vertex 19 92.2 0
      vertex 18.2 92.2 1.2
      vertex 19 92.2 1.2
    endloop
  endfacet
  facet normal 0 1 0
    outer loop
      vertex 18.2 92.2 1.2
      vertex 19 92.2 0
      vertex 18.2 92.2 0
    endloop
  endfacet
  facet normal 0 1 -0
    outer loop
      vertex 38 92.2 0
      vertex 37.2 92.2 1.2
      vertex 38 92.2 1.2
    endloop
  endfacet
  facet normal 0 1 0
    outer loop
      vertex 37.2 92.2 1.2
      vertex 38 92.2 0
      vertex 37.2 92.2 0
    endloop
  endfacet
  facet normal 0 1 -0
    outer loop
      vertex 57 92.2 0
      vertex 56.2 92.2 1.2
      vertex 57 92.2 1.2
    endloop
  endfacet
  facet normal 0 1 0
    outer loop
      vertex 56.2 92.2 1.2
      vertex 57 92.2 0
      vertex 56.2 92.2 0
    endloop
  endfacet
  facet normal 0 1 0
    outer loop
      vertex 57 92.2 1.2
      vertex 66.75 92.2 2.2
      vertex 66.75 92.2 1.2
    endloop
  endfacet
  facet normal 0 1 0
    outer loop
      vertex 56.2 92.2 1.2
      vertex 66.75 92.2 2.2
      vertex 57 92.2 1.2
    endloop
  endfacet
  facet normal 0 1 0
    outer loop
      vertex 38 92.2 1.2
      vertex 66.75 92.2 2.2
      vertex 56.2 92.2 1.2
    endloop
  endfacet
  facet normal 0 1 0
    outer loop
      vertex 37.2 92.2 1.2
      vertex 66.75 92.2 2.2
      vertex 38 92.2 1.2
    endloop
  endfacet
  facet normal 0 1 0
    outer loop
      vertex 19 92.2 1.2
      vertex 66.75 92.2 2.2
      vertex 37.2 92.2 1.2
    endloop
  endfacet
  facet normal 0 1 0
    outer loop
      vertex 66.75 92.2 2.2
      vertex 19 92.2 1.2
      vertex -36.2 92.2 2.2
    endloop
  endfacet
  facet normal 0 1 -0
    outer loop
      vertex 18.2 92.2 1.2
      vertex -36.2 92.2 2.2
      vertex 19 92.2 1.2
    endloop
  endfacet
  facet normal 0 1 0
    outer loop
      vertex -36.2 92.2 2.2
      vertex 18.2 92.2 1.2
      vertex -36.2 92.2 1.2
    endloop
  endfacet
  facet normal 0 -1 0
    outer loop
      vertex 56.2 0 0
      vertex 57 0 1.2
      vertex 56.2 0 1.2
    endloop
  endfacet
  facet normal 0 -1 -0
    outer loop
      vertex 57 0 1.2
      vertex 56.2 0 0
      vertex 57 0 0
    endloop
  endfacet
  facet normal 0 -1 0
    outer loop
      vertex 37.2 0 0
      vertex 38 0 1.2
      vertex 37.2 0 1.2
    endloop
  endfacet
  facet normal 0 -1 -0
    outer loop
      vertex 38 0 1.2
      vertex 37.2 0 0
      vertex 38 0 0
    endloop
  endfacet
  facet normal 0 -1 0
    outer loop
      vertex 18.2 0 0
      vertex 19 0 1.2
      vertex 18.2 0 1.2
    endloop
  endfacet
  facet normal 0 -1 -0
    outer loop
      vertex 19 0 1.2
      vertex 18.2 0 0
      vertex 19 0 0
    endloop
  endfacet
  facet normal 0 -1 0
    outer loop
      vertex 18.2 0 1.2
      vertex -36.2 0 2.2
      vertex -36.2 0 1.2
    endloop
  endfacet
  facet normal 0 -1 0
    outer loop
      vertex -36.2 0 2.2
      vertex 18.2 0 1.2
      vertex 66.75 0 2.2
    endloop
  endfacet
  facet normal 0 -1 0
    outer loop
      vertex 19 0 1.2
      vertex 66.75 0 2.2
      vertex 18.2 0 1.2
    endloop
  endfacet
  facet normal 0 -1 0
    outer loop
      vertex 37.2 0 1.2
      vertex 66.75 0 2.2
      vertex 19 0 1.2
    endloop
  endfacet
  facet normal 0 -1 0
    outer loop
      vertex 38 0 1.2
      vertex 66.75 0 2.2
      vertex 37.2 0 1.2
    endloop
  endfacet
  facet normal 0 -1 0
    outer loop
      vertex 56.2 0 1.2
      vertex 66.75 0 2.2
      vertex 38 0 1.2
    endloop
  endfacet
  facet normal 0 -1 0
    outer loop
      vertex 57 0 1.2
      vertex 66.75 0 2.2
      vertex 56.2 0 1.2
    endloop
  endfacet
  facet normal 0 -1 -0
    outer loop
      vertex 66.75 0 2.2
      vertex 57 0 1.2
      vertex 66.75 0 1.2
    endloop
  endfacet
  facet normal -1 0 0
    outer loop
      vertex 18.2 0 0
      vertex 18.2 17.8 1.2
      vertex 18.2 17.8 0
    endloop
  endfacet
  facet normal -1 -0 0
    outer loop
      vertex 18.2 17.8 1.2
      vertex 18.2 0 0
      vertex 18.2 0 1.2
    endloop
  endfacet
  facet normal 0 0 -1
    outer loop
      vertex 18.2 0 1.2
      vertex 0 17.8 1.2
      vertex 18.2 17.8 1.2
    endloop
  endfacet
  facet normal 0 0 -1
    outer loop
      vertex -36.2 0 1.2
      vertex 0 18.6 1.2
      vertex 0 17.8 1.2
    endloop
  endfacet
  facet normal -0 0 -1
    outer loop
      vertex 0 18.6 1.2
      vertex -36.2 0 1.2
      vertex 0 36.4 1.2
    endloop
  endfacet
  facet normal -0 0 -1
    outer loop
      vertex 0 36.4 1.2
      vertex -36.2 0 1.2
      vertex 0 37.2 1.2
    endloop
  endfacet
  facet normal -0 0 -1
    outer loop
      vertex 0 37.2 1.2
      vertex -36.2 0 1.2
      vertex 0 55 1.2
    endloop
  endfacet
  facet normal 0 0 -1
    outer loop
      vertex -36.2 92.2 1.2
      vertex 0 55 1.2
      vertex -36.2 0 1.2
    endloop
  endfacet
  facet normal 0 0 -1
    outer loop
      vertex 0 55 1.2
      vertex -36.2 92.2 1.2
      vertex 0 55.8 1.2
    endloop
  endfacet
  facet normal 0 0 -1
    outer loop
      vertex 0 55.8 1.2
      vertex -36.2 92.2 1.2
      vertex 0 73.6 1.2
    endloop
  endfacet
  facet normal 0 0 -1
    outer loop
      vertex -36.2 0 1.2
      vertex 0 17.8 1.2
      vertex 18.2 0 1.2
    endloop
  endfacet
  facet normal 0 0 -1
    outer loop
      vertex 0 18.6 1.2
      vertex 22.96 36.4 1.2
      vertex 22.96 18.6 1.2
    endloop
  endfacet
  facet normal -0 0 -1
    outer loop
      vertex 22.96 36.4 1.2
      vertex 0 18.6 1.2
      vertex 0 36.4 1.2
    endloop
  endfacet
  facet normal 0 0 -1
    outer loop
      vertex 0 37.2 1.2
      vertex 32.4 55 1.2
      vertex 32.4 37.2 1.2
    endloop
  endfacet
  facet normal -0 0 -1
    outer loop
      vertex 32.4 55 1.2
      vertex 0 37.2 1.2
      vertex 0 55 1.2
    endloop
  endfacet
  facet normal 0 0 -1
    outer loop
      vertex 0 55.8 1.2
      vertex 27.7 73.6 1.2
      vertex 27.7 55.8 1.2
    endloop
  endfacet
  facet normal -0 0 -1
    outer loop
      vertex 27.7 73.6 1.2
      vertex 0 55.8 1.2
      vertex 0 73.6 1.2
    endloop
  endfacet
  facet normal 0 0 -1
    outer loop
      vertex 0 74.4 1.2
      vertex 18.2 92.2 1.2
      vertex 18.2 74.4 1.2
    endloop
  endfacet
  facet normal 0 0 -1
    outer loop
      vertex 0 74.4 1.2
      vertex -36.2 92.2 1.2
      vertex 18.2 92.2 1.2
    endloop
  endfacet
  facet normal 0 0 -1
    outer loop
      vertex 0 73.6 1.2
      vertex -36.2 92.2 1.2
      vertex 0 74.4 1.2
    endloop
  endfacet
  facet normal -1 0 0
    outer loop
      vertex 0 17.8 0
      vertex 0 18.6 1.2
      vertex 0 18.6 0
    endloop
  endfacet
  facet normal -1 -0 0
    outer loop
      vertex 0 18.6 1.2
      vertex 0 17.8 0
      vertex 0 17.8 1.2
    endloop
  endfacet
  facet normal -1 0 0
    outer loop
      vertex 0 36.4 0
      vertex 0 37.2 1.2
      vertex 0 37.2 0
    endloop
  endfacet
  facet normal -1 -0 0
    outer loop
      vertex 0 37.2 1.2
      vertex 0 36.4 0
      vertex 0 36.4 1.2
    endloop
  endfacet
  facet normal -1 0 0
    outer loop
      vertex 0 55 0
      vertex 0 55.8 1.2
      vertex 0 55.8 0
    endloop
  endfacet
  facet normal -1 -0 0
    outer loop
      vertex 0 55.8 1.2
      vertex 0 55 0
      vertex 0 55 1.2
    endloop
  endfacet
  facet normal -1 0 0
    outer loop
      vertex 0 73.6 0
      vertex 0 74.4 1.2
      vertex 0 74.4 0
    endloop
  endfacet
  facet normal -1 -0 0
    outer loop
      vertex 0 74.4 1.2
      vertex 0 73.6 0
      vertex 0 73.6 1.2
    endloop
  endfacet
  facet normal 0 -1 0
    outer loop
      vertex 0 17.8 0
      vertex 18.2 17.8 1.2
      vertex 0 17.8 1.2
    endloop
  endfacet
  facet normal 0 -1 -0
    outer loop
      vertex 18.2 17.8 1.2
      vertex 0 17.8 0
      vertex 18.2 17.8 0
    endloop
  endfacet
  facet normal -1 0 0
    outer loop
      vertex 37.2 0 0
      vertex 37.2 17.8 1.2
      vertex 37.2 17.8 0
    endloop
  endfacet
  facet normal -1 -0 0
    outer loop
      vertex 37.2 17.8 1.2
      vertex 37.2 0 0
      vertex 37.2 0 1.2
    endloop
  endfacet
  facet normal 0 0 -1
    outer loop
      vertex 19 0 1.2
      vertex 37.2 17.8 1.2
      vertex 37.2 0 1.2
    endloop
  endfacet
  facet normal -0 0 -1
    outer loop
      vertex 37.2 17.8 1.2
      vertex 19 0 1.2
      vertex 19 17.8 1.2
    endloop
  endfacet
  facet normal 1 -0 0
    outer loop
      vertex 19 0 1.2
      vertex 19 17.8 0
      vertex 19 17.8 1.2
    endloop
  endfacet
  facet normal 1 0 0
    outer loop
      vertex 19 17.8 0
      vertex 19 0 1.2
      vertex 19 0 0
    endloop
  endfacet
  facet normal 0 -1 0
    outer loop
      vertex 19 17.8 0
      vertex 37.2 17.8 1.2
      vertex 19 17.8 1.2
    endloop
  endfacet
  facet normal 0 -1 -0
    outer loop
      vertex 37.2 17.8 1.2
      vertex 19 17.8 0
      vertex 37.2 17.8 0
    endloop
  endfacet
  facet normal -1 0 0
    outer loop
      vertex 56.2 0 0
      vertex 56.2 17.8 1.2
      vertex 56.2 17.8 0
    endloop
  endfacet
  facet normal -1 -0 0
    outer loop
      vertex 56.2 17.8 1.2
      vertex 56.2 0 0
      vertex 56.2 0 1.2
    endloop
  endfacet
  facet normal 0 0 -1
    outer loop
      vertex 38 0 1.2
      vertex 56.2 17.8 1.2
      vertex 56.2 0 1.2
    endloop
  endfacet
  facet normal -0 0 -1
    outer loop
      vertex 56.2 17.8 1.2
      vertex 38 0 1.2
      vertex 38 17.8 1.2
    endloop
  endfacet
  facet normal 1 -0 0
    outer loop
      vertex 38 0 1.2
      vertex 38 17.8 0
      vertex 38 17.8 1.2
    endloop
  endfacet
  facet normal 1 0 0
    outer loop
      vertex 38 17.8 0
      vertex 38 0 1.2
      vertex 38 0 0
    endloop
  endfacet
  facet normal 0 -1 0
    outer loop
      vertex 38 17.8 0
      vertex 56.2 17.8 1.2
      vertex 38 17.8 1.2
    endloop
  endfacet
  facet normal 0 -1 -0
    outer loop
      vertex 56.2 17.8 1.2
      vertex 38 17.8 0
      vertex 56.2 17.8 0
    endloop
  endfacet
  facet normal 0 0 -1
    outer loop
      vertex 57 0 1.2
      vertex 66.75 17.8 1.2
      vertex 66.75 0 1.2
    endloop
  endfacet
  facet normal -0 0 -1
    outer loop
      vertex 66.75 17.8 1.2
      vertex 57 0 1.2
      vertex 57 17.8 1.2
    endloop
  endfacet
  facet normal 1 -0 0
    outer loop
      vertex 57 0 1.2
      vertex 57 17.8 0
      vertex 57 17.8 1.2
    endloop
  endfacet
  facet normal 1 0 0
    outer loop
      vertex 57 17.8 0
      vertex 57 0 1.2
      vertex 57 0 0
    endloop
  endfacet
  facet normal 0 -1 0
    outer loop
      vertex 57 17.8 0
      vertex 66.75 17.8 1.2
      vertex 57 17.8 1.2
    endloop
  endfacet
  facet normal 0 -1 -0
    outer loop
      vertex 66.75 17.8 1.2
      vertex 57 17.8 0
      vertex 66.75 17.8 0
    endloop
  endfacet
  facet normal -1 0 0
    outer loop
      vertex 22.96 18.6 0
      vertex 22.96 36.4 1.2
      vertex 22.96 36.4 0
    endloop
  endfacet
  facet normal -1 -0 0
    outer loop
      vertex 22.96 36.4 1.2
      vertex 22.96 18.6 0
      vertex 22.96 18.6 1.2
    endloop
  endfacet
  facet normal 0 -1 0
    outer loop
      vertex 0 36.4 0
      vertex 22.96 36.4 1.2
      vertex 0 36.4 1.2
    endloop
  endfacet
  facet normal 0 -1 -0
    outer loop
      vertex 22.96 36.4 1.2
      vertex 0 36.4 0
      vertex 22.96 36.4 0
    endloop
  endfacet
  facet normal 0 1 -0
    outer loop
      vertex 22.96 18.6 0
      vertex 0 18.6 1.2
      vertex 22.96 18.6 1.2
    endloop
  endfacet
  facet normal 0 1 0
    outer loop
      vertex 0 18.6 1.2
      vertex 22.96 18.6 0
      vertex 0 18.6 0
    endloop
  endfacet
  facet normal -1 0 0
    outer loop
      vertex 41.96 18.6 0
      vertex 41.96 36.4 1.2
      vertex 41.96 36.4 0
    endloop
  endfacet
  facet normal -1 -0 0
    outer loop
      vertex 41.96 36.4 1.2
      vertex 41.96 18.6 0
      vertex 41.96 18.6 1.2
    endloop
  endfacet
  facet normal 0 0 -1
    outer loop
      vertex 23.76 18.6 1.2
      vertex 41.96 36.4 1.2
      vertex 41.96 18.6 1.2
    endloop
  endfacet
  facet normal -0 0 -1
    outer loop
      vertex 41.96 36.4 1.2
      vertex 23.76 18.6 1.2
      vertex 23.76 36.4 1.2
    endloop
  endfacet
  facet normal 1 -0 0
    outer loop
      vertex 23.76 18.6 1.2
      vertex 23.76 36.4 0
      vertex 23.76 36.4 1.2
    endloop
  endfacet
  facet normal 1 0 0
    outer loop
      vertex 23.76 36.4 0
      vertex 23.76 18.6 1.2
      vertex 23.76 18.6 0
    endloop
  endfacet
  facet normal 0 -1 0
    outer loop
      vertex 23.76 36.4 0
      vertex 41.96 36.4 1.2
      vertex 23.76 36.4 1.2
    endloop
  endfacet
  facet normal 0 -1 -0
    outer loop
      vertex 41.96 36.4 1.2
      vertex 23.76 36.4 0
      vertex 41.96 36.4 0
    endloop
  endfacet
  facet normal 0 1 -0
    outer loop
      vertex 41.96 18.6 0
      vertex 23.76 18.6 1.2
      vertex 41.96 18.6 1.2
    endloop
  endfacet
  facet normal 0 1 0
    outer loop
      vertex 23.76 18.6 1.2
      vertex 41.96 18.6 0
      vertex 23.76 18.6 0
    endloop
  endfacet
  facet normal -1 0 0
    outer loop
      vertex 60.96 18.6 0
      vertex 60.96 36.4 1.2
      vertex 60.96 36.4 0
    endloop
  endfacet
  facet normal -1 -0 0
    outer loop
      vertex 60.96 36.4 1.2
      vertex 60.96 18.6 0
      vertex 60.96 18.6 1.2
    endloop
  endfacet
  facet normal 0 0 -1
    outer loop
      vertex 42.76 18.6 1.2
      vertex 60.96 36.4 1.2
      vertex 60.96 18.6 1.2
    endloop
  endfacet
  facet normal -0 0 -1
    outer loop
      vertex 60.96 36.4 1.2
      vertex 42.76 18.6 1.2
      vertex 42.76 36.4 1.2
    endloop
  endfacet
  facet normal 1 -0 0
    outer loop
      vertex 42.76 18.6 1.2
      vertex 42.76 36.4 0
      vertex 42.76 36.4 1.2
    endloop
  endfacet
  facet normal 1 0 0
    outer loop
      vertex 42.76 36.4 0
      vertex 42.76 18.6 1.2
      vertex 42.76 18.6 0
    endloop
  endfacet
  facet normal 0 -1 0
    outer loop
      vertex 42.76 36.4 0
      vertex 60.96 36.4 1.2
      vertex 42.76 36.4 1.2
    endloop
  endfacet
  facet normal 0 -1 -0
    outer loop
      vertex 60.96 36.4 1.2
      vertex 42.76 36.4 0
      vertex 60.96 36.4 0
    endloop
  endfacet
  facet normal 0 1 -0
    outer loop
      vertex 60.96 18.6 0
      vertex 42.76 18.6 1.2
      vertex 60.96 18.6 1.2
    endloop
  endfacet
  facet normal 0 1 0
    outer loop
      vertex 42.76 18.6 1.2
      vertex 60.96 18.6 0
      vertex 42.76 18.6 0
    endloop
  endfacet
  facet normal 0 0 -1
    outer loop
      vertex 61.76 18.6 1.2
      vertex 66.75 36.4 1.2
      vertex 66.75 18.6 1.2
    endloop
  endfacet
  facet normal -0 0 -1
    outer loop
      vertex 66.75 36.4 1.2
      vertex 61.76 18.6 1.2
      vertex 61.76 36.4 1.2
    endloop
  endfacet
  facet normal 1 -0 0
    outer loop
      vertex 61.76 18.6 1.2
      vertex 61.76 36.4 0
      vertex 61.76 36.4 1.2
    endloop
  endfacet
  facet normal 1 0 0
    outer loop
      vertex 61.76 36.4 0
      vertex 61.76 18.6 1.2
      vertex 61.76 18.6 0
    endloop
  endfacet
  facet normal 0 -1 0
    outer loop
      vertex 61.76 36.4 0
      vertex 66.75 36.4 1.2
      vertex 61.76 36.4 1.2
    endloop
  endfacet
  facet normal 0 -1 -0
    outer loop
      vertex 66.75 36.4 1.2
      vertex 61.76 36.4 0
      vertex 66.75 36.4 0
    endloop
  endfacet
  facet normal 0 1 -0
    outer loop
      vertex 66.75 18.6 0
      vertex 61.76 18.6 1.2
      vertex 66.75 18.6 1.2
    endloop
  endfacet
  facet normal 0 1 0
    outer loop
      vertex 61.76 18.6 1.2
      vertex 66.75 18.6 0
      vertex 61.76 18.6 0
    endloop
  endfacet
  facet normal -1 0 0
    outer loop
      vertex 32.4 37.2 0
      vertex 32.4 55 1.2
      vertex 32.4 55 0
    endloop
  endfacet
  facet normal -1 -0 0
    outer loop
      vertex 32.4 55 1.2
      vertex 32.4 37.2 0
      vertex 32.4 37.2 1.2
    endloop
  endfacet
  facet normal 0 -1 0
    outer loop
      vertex 0 55 0
      vertex 32.4 55 1.2
      vertex 0 55 1.2
    endloop
  endfacet
  facet normal 0 -1 -0
    outer loop
      vertex 32.4 55 1.2
      vertex 0 55 0
      vertex 32.4 55 0
    endloop
  endfacet
  facet normal 0 1 -0
    outer loop
      vertex 32.4 37.2 0
      vertex 0 37.2 1.2
      vertex 32.4 37.2 1.2
    endloop
  endfacet
  facet normal 0 1 0
    outer loop
      vertex 0 37.2 1.2
      vertex 32.4 37.2 0
      vertex 0 37.2 0
    endloop
  endfacet
  facet normal -1 0 0
    outer loop
      vertex 51.4 37.2 0
      vertex 51.4 55 1.2
      vertex 51.4 55 0
    endloop
  endfacet
  facet normal -1 -0 0
    outer loop
      vertex 51.4 55 1.2
      vertex 51.4 37.2 0
      vertex 51.4 37.2 1.2
    endloop
  endfacet
  facet normal 0 0 -1
    outer loop
      vertex 33.2 37.2 1.2
      vertex 51.4 55 1.2
      vertex 51.4 37.2 1.2
    endloop
  endfacet
  facet normal -0 0 -1
    outer loop
      vertex 51.4 55 1.2
      vertex 33.2 37.2 1.2
      vertex 33.2 55 1.2
    endloop
  endfacet
  facet normal 1 -0 0
    outer loop
      vertex 33.2 37.2 1.2
      vertex 33.2 55 0
      vertex 33.2 55 1.2
    endloop
  endfacet
  facet normal 1 0 0
    outer loop
      vertex 33.2 55 0
      vertex 33.2 37.2 1.2
      vertex 33.2 37.2 0
    endloop
  endfacet
  facet normal 0 -1 0
    outer loop
      vertex 33.2 55 0
      vertex 51.4 55 1.2
      vertex 33.2 55 1.2
    endloop
  endfacet
  facet normal 0 -1 -0
    outer loop
      vertex 51.4 55 1.2
      vertex 33.2 55 0
      vertex 51.4 55 0
    endloop
  endfacet
  facet normal 0 1 -0
    outer loop
      vertex 51.4 37.2 0
      vertex 33.2 37.2 1.2
      vertex 51.4 37.2 1.2
    endloop
  endfacet
  facet normal 0 1 0
    outer loop
      vertex 33.2 37.2 1.2
      vertex 51.4 37.2 0
      vertex 33.2 37.2 0
    endloop
  endfacet
  facet normal 0 0 -1
    outer loop
      vertex 52.2 37.2 1.2
      vertex 66.75 55 1.2
      vertex 66.75 37.2 1.2
    endloop
  endfacet
  facet normal -0 0 -1
    outer loop
      vertex 66.75 55 1.2
      vertex 52.2 37.2 1.2
      vertex 52.2 55 1.2
    endloop
  endfacet
  facet normal 1 -0 0
    outer loop
      vertex 52.2 37.2 1.2
      vertex 52.2 55 0
      vertex 52.2 55 1.2
    endloop
  endfacet
  facet normal 1 0 0
    outer loop
      vertex 52.2 55 0
      vertex 52.2 37.2 1.2
      vertex 52.2 37.2 0
    endloop
  endfacet
  facet normal 0 -1 0
    outer loop
      vertex 52.2 55 0
      vertex 66.75 55 1.2
      vertex 52.2 55 1.2
    endloop
  endfacet
  facet normal 0 -1 -0
    outer loop
      vertex 66.75 55 1.2
      vertex 52.2 55 0
      vertex 66.75 55 0
    endloop
  endfacet
  facet normal 0 1 -0
    outer loop
      vertex 66.75 37.2 0
      vertex 52.2 37.2 1.2
      vertex 66.75 37.2 1.2
    endloop
  endfacet
  facet normal 0 1 0
    outer loop
      vertex 52.2 37.2 1.2
      vertex 66.75 37.2 0
      vertex 52.2 37.2 0
    endloop
  endfacet
  facet normal -1 0 0
    outer loop
      vertex 27.7 55.8 0
      vertex 27.7 73.6 1.2
      vertex 27.7 73.6 0
    endloop
  endfacet
  facet normal -1 -0 0
    outer loop
      vertex 27.7 73.6 1.2
      vertex 27.7 55.8 0
      vertex 27.7 55.8 1.2
    endloop
  endfacet
  facet normal 0 -1 0
    outer loop
      vertex 0 73.6 0
      vertex 27.7 73.6 1.2
      vertex 0 73.6 1.2
    endloop
  endfacet
  facet normal 0 -1 -0
    outer loop
      vertex 27.7 73.6 1.2
      vertex 0 73.6 0
      vertex 27.7 73.6 0
    endloop
  endfacet
  facet normal 0 1 -0
    outer loop
      vertex 27.7 55.8 0
      vertex 0 55.8 1.2
      vertex 27.7 55.8 1.2
    endloop
  endfacet
  facet normal 0 1 0
    outer loop
      vertex 0 55.8 1.2
      vertex 27.7 55.8 0
      vertex 0 55.8 0
    endloop
  endfacet
  facet normal -1 0 0
    outer loop
      vertex 46.7 55.8 0
      vertex 46.7 73.6 1.2
      vertex 46.7 73.6 0
    endloop
  endfacet
  facet normal -1 -0 0
    outer loop
      vertex 46.7 73.6 1.2
      vertex 46.7 55.8 0
      vertex 46.7 55.8 1.2
    endloop
  endfacet
  facet normal 0 0 -1
    outer loop
      vertex 28.5 55.8 1.2
      vertex 46.7 73.6 1.2
      vertex 46.7 55.8 1.2
    endloop
  endfacet
  facet normal -0 0 -1
    outer loop
      vertex 46.7 73.6 1.2
      vertex 28.5 55.8 1.2
      vertex 28.5 73.6 1.2
    endloop
  endfacet
  facet normal 1 -0 0
    outer loop
      vertex 28.5 55.8 1.2
      vertex 28.5 73.6 0
      vertex 28.5 73.6 1.2
    endloop
  endfacet
  facet normal 1 0 0
    outer loop
      vertex 28.5 73.6 0
      vertex 28.5 55.8 1.2
      vertex 28.5 55.8 0
    endloop
  endfacet
  facet normal 0 -1 0
    outer loop
      vertex 28.5 73.6 0
      vertex 46.7 73.6 1.2
      vertex 28.5 73.6 1.2
    endloop
  endfacet
  facet normal 0 -1 -0
    outer loop
      vertex 46.7 73.6 1.2
      vertex 28.5 73.6 0
      vertex 46.7 73.6 0
    endloop
  endfacet
  facet normal 0 1 -0
    outer loop
      vertex 46.7 55.8 0
      vertex 28.5 55.8 1.2
      vertex 46.7 55.8 1.2
    endloop
  endfacet
  facet normal 0 1 0
    outer loop
      vertex 28.5 55.8 1.2
      vertex 46.7 55.8 0
      vertex 28.5 55.8 0
    endloop
  endfacet
  facet normal -1 0 0
    outer loop
      vertex 65.7 55.8 0
      vertex 65.7 73.6 1.2
      vertex 65.7 73.6 0
    endloop
  endfacet
  facet normal -1 -0 0
    outer loop
      vertex 65.7 73.6 1.2
      vertex 65.7 55.8 0
      vertex 65.7 55.8 1.2
    endloop
  endfacet
  facet normal 0 0 -1
    outer loop
      vertex 47.5 55.8 1.2
      vertex 65.7 73.6 1.2
      vertex 65.7 55.8 1.2
    endloop
  endfacet
  facet normal -0 0 -1
    outer loop
      vertex 65.7 73.6 1.2
      vertex 47.5 55.8 1.2
      vertex 47.5 73.6 1.2
    endloop
  endfacet
  facet normal 1 -0 0
    outer loop
      vertex 47.5 55.8 1.2
      vertex 47.5 73.6 0
      vertex 47.5 73.6 1.2
    endloop
  endfacet
  facet normal 1 0 0
    outer loop
      vertex 47.5 73.6 0
      vertex 47.5 55.8 1.2
      vertex 47.5 55.8 0
    endloop
  endfacet
  facet normal 0 -1 0
    outer loop
      vertex 47.5 73.6 0
      vertex 65.7 73.6 1.2
      vertex 47.5 73.6 1.2
    endloop
  endfacet
  facet normal 0 -1 -0
    outer loop
      vertex 65.7 73.6 1.2
      vertex 47.5 73.6 0
      vertex 65.7 73.6 0
    endloop
  endfacet
  facet normal 0 1 -0
    outer loop
      vertex 65.7 55.8 0
      vertex 47.5 55.8 1.2
      vertex 65.7 55.8 1.2
    endloop
  endfacet
  facet normal 0 1 0
    outer loop
      vertex 47.5 55.8 1.2
      vertex 65.7 55.8 0
      vertex 47.5 55.8 0
    endloop
  endfacet
  facet normal 0 0 -1
    outer loop
      vertex 66.5 55.8 1.2
      vertex 66.75 73.6 1.2
      vertex 66.75 55.8 1.2
    endloop
  endfacet
  facet normal -0 0 -1
    outer loop
      vertex 66.75 73.6 1.2
      vertex 66.5 55.8 1.2
      vertex 66.5 73.6 1.2
    endloop
  endfacet
  facet normal 1 -0 0
    outer loop
      vertex 66.5 55.8 1.2
      vertex 66.5 73.6 0
      vertex 66.5 73.6 1.2
    endloop
  endfacet
  facet normal 1 0 0
    outer loop
      vertex 66.5 73.6 0
      vertex 66.5 55.8 1.2
      vertex 66.5 55.8 0
    endloop
  endfacet
  facet normal 0 -1 0
    outer loop
      vertex 66.5 73.6 0
      vertex 66.75 73.6 1.2
      vertex 66.5 73.6 1.2
    endloop
  endfacet
  facet normal 0 -1 -0
    outer loop
      vertex 66.75 73.6 1.2
      vertex 66.5 73.6 0
      vertex 66.75 73.6 0
    endloop
  endfacet
  facet normal 0 1 -0
    outer loop
      vertex 66.75 55.8 0
      vertex 66.5 55.8 1.2
      vertex 66.75 55.8 1.2
    endloop
  endfacet
  facet normal 0 1 0
    outer loop
      vertex 66.5 55.8 1.2
      vertex 66.75 55.8 0
      vertex 66.5 55.8 0
    endloop
  endfacet
  facet normal -1 0 0
    outer loop
      vertex 18.2 74.4 0
      vertex 18.2 92.2 1.2
      vertex 18.2 92.2 0
    endloop
  endfacet
  facet normal -1 -0 0
    outer loop
      vertex 18.2 92.2 1.2
      vertex 18.2 74.4 0
      vertex 18.2 74.4 1.2
    endloop
  endfacet
  facet normal 0 1 -0
    outer loop
      vertex 18.2 74.4 0
      vertex 0 74.4 1.2
      vertex 18.2 74.4 1.2
    endloop
  endfacet
  facet normal 0 1 0
    outer loop
      vertex 0 74.4 1.2
      vertex 18.2 74.4 0
      vertex 0 74.4 0
    endloop
  endfacet
  facet normal -1 0 0
    outer loop
      vertex 37.2 74.4 0
      vertex 37.2 92.2 1.2
      vertex 37.2 92.2 0
    endloop
  endfacet
  facet normal -1 -0 0
    outer loop
      vertex 37.2 92.2 1.2
      vertex 37.2 74.4 0
      vertex 37.2 74.4 1.2
    endloop
  endfacet
  facet normal 0 0 -1
    outer loop
      vertex 19 74.4 1.2
      vertex 37.2 92.2 1.2
      vertex 37.2 74.4 1.2
    endloop
  endfacet
  facet normal -0 0 -1
    outer loop
      vertex 37.2 92.2 1.2
      vertex 19 74.4 1.2
      vertex 19 92.2 1.2
    endloop
  endfacet
  facet normal 1 -0 0
    outer loop
      vertex 19 74.4 1.2
      vertex 19 92.2 0
      vertex 19 92.2 1.2
    endloop
  endfacet
  facet normal 1 0 0
    outer loop
      vertex 19 92.2 0
      vertex 19 74.4 1.2
      vertex 19 74.4 0
    endloop
  endfacet
  facet normal 0 1 -0
    outer loop
      vertex 37.2 74.4 0
      vertex 19 74.4 1.2
      vertex 37.2 74.4 1.2
    endloop
  endfacet
  facet normal 0 1 0
    outer loop
      vertex 19 74.4 1.2
      vertex 37.2 74.4 0
      vertex 19 74.4 0
    endloop
  endfacet
  facet normal -1 0 0
    outer loop
      vertex 56.2 74.4 0
      vertex 56.2 92.2 1.2
      vertex 56.2 92.2 0
    endloop
  endfacet
  facet normal -1 -0 0
    outer loop
      vertex 56.2 92.2 1.2
      vertex 56.2 74.4 0
      vertex 56.2 74.4 1.2
    endloop
  endfacet
  facet normal 0 0 -1
    outer loop
      vertex 38 74.4 1.2
      vertex 56.2 92.2 1.2
      vertex 56.2 74.4 1.2
    endloop
  endfacet
  facet normal -0 0 -1
    outer loop
      vertex 56.2 92.2 1.2
      vertex 38 74.4 1.2
      vertex 38 92.2 1.2
    endloop
  endfacet
  facet normal 1 -0 0
    outer loop
      vertex 38 74.4 1.2
      vertex 38 92.2 0
      vertex 38 92.2 1.2
    endloop
  endfacet
  facet normal 1 0 0
    outer loop
      vertex 38 92.2 0
      vertex 38 74.4 1.2
      vertex 38 74.4 0
    endloop
  endfacet
  facet normal 0 1 -0
    outer loop
      vertex 56.2 74.4 0
      vertex 38 74.4 1.2
      vertex 56.2 74.4 1.2
    endloop
  endfacet
  facet normal 0 1 0
    outer loop
      vertex 38 74.4 1.2
      vertex 56.2 74.4 0
      vertex 38 74.4 0
    endloop
  endfacet
  facet normal 0 0 -1
    outer loop
      vertex 57 74.4 1.2
      vertex 66.75 92.2 1.2
      vertex 66.75 74.4 1.2
    endloop
  endfacet
  facet normal -0 0 -1
    outer loop
      vertex 66.75 92.2 1.2
      vertex 57 74.4 1.2
      vertex 57 92.2 1.2
    endloop
  endfacet
  facet normal 1 -0 0
    outer loop
      vertex 57 74.4 1.2
      vertex 57 92.2 0
      vertex 57 92.2 1.2
    endloop
  endfacet
  facet normal 1 0 0
    outer loop
      vertex 57 92.2 0
      vertex 57 74.4 1.2
      vertex 57 74.4 0
    endloop
  endfacet
  facet normal 0 1 -0
    outer loop
      vertex 66.75 74.4 0
      vertex 57 74.4 1.2
      vertex 66.75 74.4 1.2
    endloop
  endfacet
  facet normal 0 1 0
    outer loop
      vertex 57 74.4 1.2
      vertex 66.75 74.4 0
      vertex 57 74.4 0
    endloop
  endfacet
endsolid OpenSCAD_Model
